<svg id="visual" viewBox="0 0 900 600" width="900" height="600" xmlns="http://www.w3.org/2000/svg" xmlns:xlink="http://www.w3.org/1999/xlink" version="1.1"><rect x="0" y="0" width="900" height="600" fill="#f8f8f8"></rect><defs><linearGradient id="grad1_0" x1="33.3%" y1="0%" x2="100%" y2="100%"><stop offset="20%" stop-color="#d6d6d6" stop-opacity="1"></stop><stop offset="80%" stop-color="#d6d6d6" stop-opacity="1"></stop></linearGradient></defs><defs><linearGradient id="grad1_1" x1="33.3%" y1="0%" x2="100%" y2="100%"><stop offset="20%" stop-color="#d6d6d6" stop-opacity="1"></stop><stop offset="80%" stop-color="#e7e7e7" stop-opacity="1"></stop></linearGradient></defs><defs><linearGradient id="grad1_2" x1="33.3%" y1="0%" x2="100%" y2="100%"><stop offset="20%" stop-color="#f8f8f8" stop-opacity="1"></stop><stop offset="80%" stop-color="#e7e7e7" stop-opacity="1"></stop></linearGradient></defs><defs><linearGradient id="grad2_0" x1="0%" y1="0%" x2="66.7%" y2="100%"><stop offset="20%" stop-color="#d6d6d6" stop-opacity="1"></stop><stop offset="80%" stop-color="#d6d6d6" stop-opacity="1"></stop></linearGradient></defs><defs><linearGradient id="grad2_1" x1="0%" y1="0%" x2="66.7%" y2="100%"><stop offset="20%" stop-color="#e7e7e7" stop-opacity="1"></stop><stop offset="80%" stop-color="#d6d6d6" stop-opacity="1"></stop></linearGradient></defs><defs><linearGradient id="grad2_2" x1="0%" y1="0%" x2="66.7%" y2="100%"><stop offset="20%" stop-color="#e7e7e7" stop-opacity="1"></stop><stop offset="80%" stop-color="#f8f8f8" stop-opacity="1"></stop></linearGradient></defs><g transform="translate(900, 0)"><path d="M0 378.6C-33.8 372.7 -67.7 366.9 -94 350.6C-120.2 334.4 -139 307.7 -170.5 295.3C-202 283 -246.4 285 -262.3 262.3C-278.2 239.7 -265.7 192.4 -282.3 163C-299 133.6 -344.8 122.2 -365.7 98C-386.6 73.8 -382.6 36.9 -378.6 0L0 0Z" fill="#efefef"></path><path d="M0 252.4C-22.6 248.5 -45.1 244.6 -62.6 233.8C-80.2 222.9 -92.6 205.1 -113.7 196.9C-134.7 188.6 -164.3 190 -174.9 174.9C-185.5 159.8 -177.1 128.3 -188.2 108.7C-199.3 89.1 -229.9 81.4 -243.8 65.3C-257.7 49.2 -255.1 24.6 -252.4 0L0 0Z" fill="#dedede"></path><path d="M0 126.2C-11.3 124.2 -22.6 122.3 -31.3 116.9C-40.1 111.5 -46.3 102.6 -56.8 98.4C-67.3 94.3 -82.1 95 -87.4 87.4C-92.7 79.9 -88.6 64.1 -94.1 54.3C-99.7 44.5 -114.9 40.7 -121.9 32.7C-128.9 24.6 -127.5 12.3 -126.2 0L0 0Z" fill="#d6d6d6"></path></g><g transform="translate(0, 600)"><path d="M0 -378.6C32.8 -373.7 65.7 -368.9 96.5 -360.3C127.4 -351.7 156.3 -339.4 188 -325.6C219.7 -311.9 254.1 -296.7 267.7 -267.7C281.3 -238.7 274 -195.9 288.4 -166.5C302.8 -137.1 338.8 -121.3 357.4 -95.8C376 -70.3 377.3 -35.1 378.6 0L0 0Z" fill="#efefef"></path><path d="M0 -252.4C21.9 -249.2 43.8 -245.9 64.4 -240.2C84.9 -234.5 104.2 -226.3 125.3 -217.1C146.5 -207.9 169.4 -197.8 178.5 -178.5C187.5 -159.1 182.7 -130.6 192.3 -111C201.8 -91.4 225.8 -80.8 238.3 -63.8C250.7 -46.8 251.5 -23.4 252.4 0L0 0Z" fill="#dedede"></path><path d="M0 -126.2C10.9 -124.6 21.9 -123 32.2 -120.1C42.5 -117.2 52.1 -113.1 62.7 -108.5C73.2 -104 84.7 -98.9 89.2 -89.2C93.8 -79.6 91.3 -65.3 96.1 -55.5C100.9 -45.7 112.9 -40.4 119.1 -31.9C125.3 -23.4 125.8 -11.7 126.2 0L0 0Z" fill="#d6d6d6"></path></g></svg>